<svg xmlns="http://www.w3.org/2000/svg" width="283" height="223" viewBox="0 0 283 223">
<g>
<path d="M 279.66 158.50 C281.22,160.97 282.61,163.00 282.75,163.00 C282.89,163.00 283.00,126.32 283.00,81.50 L 283.00 223.00 L 282.92 194.25 C282.88,178.44 282.58,166.18 282.26,167.00 C281.95,167.82 278.45,177.37 274.49,188.20 C270.53,199.04 266.56,209.02 265.66,210.39 C264.77,211.76 260.33,215.15 255.81,217.94 L 247.58 223.00 L 0.00 223.00 L 0.00 0.00 L 283.00 0.00 L 207.25 0.07 C138.97,0.13 132.04,0.28 136.93,1.59 C147.60,4.46 154.99,8.95 164.33,18.23 C170.20,24.06 173.92,27.00 175.42,27.00 C177.54,27.00 177.75,27.64 178.89,37.25 C179.56,42.89 180.34,48.61 180.63,49.97 C180.93,51.40 186.52,57.70 193.95,64.97 C202.84,73.68 207.57,79.14 209.46,82.89 C212.19,88.31 211.92,89.94 208.28,89.98 C207.61,89.99 206.03,91.39 204.78,93.10 C203.53,94.80 199.45,98.01 195.72,100.23 C191.99,102.45 189.07,104.40 189.24,104.57 C189.41,104.74 195.83,104.24 203.52,103.46 C204.23,103.39 204.91,103.32 205.57,103.25 C218.33,101.95 221.66,101.61 222.46,102.88 C222.75,103.33 222.71,103.97 222.67,104.85 C222.66,104.98 222.65,105.11 222.65,105.25 L 222.50 108.50 L 239.00 107.79 L 239.00 116.46 C239.00,124.38 239.24,125.45 241.75,128.74 C243.26,130.72 246.08,135.53 248.01,139.42 L 251.52 146.50 L 260.12 146.79 C268.31,147.06 268.92,147.24 272.77,150.54 C274.99,152.44 278.09,156.02 279.66,158.50 ZM 0.08 110.75 C0.13,182.32 0.50,220.58 1.11,218.90 C1.64,217.47 4.47,205.91 7.41,193.21 C12.02,173.27 12.61,169.59 11.72,166.26 C10.86,163.03 11.09,161.21 13.18,154.96 L 15.66 147.50 L 25.77 147.22 C34.66,146.97 35.96,146.70 36.49,145.05 C36.81,144.01 39.54,139.09 42.54,134.11 C47.95,125.14 48.00,124.98 48.00,117.03 L 48.00 109.00 L 65.00 109.00 L 65.00 105.50 C65.00,105.31 65.00,105.13 65.00,104.96 C64.99,103.96 64.98,103.25 65.32,102.79 C66.12,101.69 68.91,102.04 78.41,103.23 C79.08,103.31 79.79,103.40 80.54,103.49 C87.12,104.31 95.65,104.99 99.50,104.99 L 106.50 104.99 L 100.00 100.97 C96.43,98.76 89.45,93.79 84.50,89.93 C77.32,84.32 74.94,82.98 72.72,83.28 C71.13,83.50 70.09,83.23 70.29,82.64 C70.77,81.19 88.09,68.81 97.11,63.48 C101.30,61.00 106.92,58.23 109.61,57.32 C113.76,55.91 124.00,48.56 124.00,47.00 C124.00,46.72 122.81,45.83 121.35,45.00 C119.22,43.79 118.65,42.64 118.39,39.05 C117.54,27.39 106.12,26.20 84.56,35.51 C80.19,37.40 76.41,38.74 76.16,38.49 C75.10,37.43 83.87,25.92 91.39,18.50 C100.14,9.86 108.46,4.76 118.50,1.87 C124.35,0.19 122.93,0.14 62.25,0.07 L 0.00 0.00 ZM 204.60 83.16 C204.93,83.69 205.43,83.91 205.70,83.63 C206.61,82.72 198.54,72.02 196.93,72.01 C196.07,72.01 190.61,70.21 184.81,68.02 C179.00,65.84 171.72,63.75 168.63,63.39 C161.16,62.51 161.44,61.00 169.07,61.00 C176.04,61.00 179.46,59.64 178.53,57.23 C178.02,55.90 178.28,55.94 179.96,57.46 C182.67,59.92 182.54,58.59 179.54,53.48 C177.85,50.60 176.72,46.45 175.92,40.21 L 174.76 31.13 L 169.45 28.98 C166.53,27.80 163.92,26.24 163.64,25.51 C162.80,23.32 149.92,13.44 142.85,9.57 C134.48,4.98 128.13,4.10 120.83,6.49 C111.54,9.53 105.12,13.31 98.21,19.81 L 91.50 26.12 L 96.50 25.36 C102.24,24.49 112.79,24.29 115.00,25.01 C117.79,25.92 123.00,31.89 123.01,34.20 C123.03,36.97 125.18,41.47 126.53,41.57 C128.95,41.73 135.00,45.52 135.00,46.87 C135.00,47.70 134.01,49.42 132.80,50.71 L 130.60 53.05 L 133.05 55.49 C134.86,57.30 137.06,58.11 141.50,58.60 C152.76,59.86 151.27,62.59 138.02,65.00 C132.38,66.02 131.86,65.94 127.87,63.42 C124.06,61.01 123.06,60.82 117.33,61.41 C111.59,62.00 109.05,62.99 99.50,68.37 C95.54,70.60 92.63,72.96 93.17,73.51 C93.48,73.81 102.45,72.96 113.11,71.61 C123.78,70.26 135.07,68.86 138.20,68.51 C141.68,68.12 148.32,68.50 155.20,69.50 C167.17,71.23 192.08,77.61 193.11,79.22 C193.45,79.74 194.02,80.12 194.37,80.07 C194.73,80.01 196.25,80.58 197.76,81.35 C199.27,82.11 201.29,82.61 202.25,82.46 C203.21,82.30 204.26,82.62 204.60,83.16 ZM 18.36 206.25 L 17.75 209.00 L 31.92 209.00 L 34.36 204.75 C35.70,202.41 39.08,196.00 41.88,190.50 C44.67,185.00 46.96,180.78 46.98,181.12 C47.00,181.61 44.22,194.52 41.47,206.75 C40.98,208.92 41.21,209.00 48.24,209.00 L 55.52 209.00 L 67.26 185.49 C73.72,172.57 79.00,161.54 79.00,160.99 C79.00,160.45 76.74,160.00 73.98,160.00 L 68.96 160.00 L 62.81 172.49 C59.42,179.36 56.50,184.83 56.32,184.65 C56.14,184.47 57.12,179.33 58.49,173.22 C59.87,167.11 61.00,161.64 61.00,161.06 C61.00,159.90 55.01,159.65 50.21,160.61 C47.51,161.15 46.48,162.56 40.99,173.18 C37.59,179.76 34.66,184.99 34.48,184.81 C34.30,184.63 35.23,179.54 36.55,173.49 C37.87,167.45 38.96,161.94 38.97,161.25 C39.02,159.22 26.11,159.55 25.32,161.60 C24.99,162.48 25.31,163.57 26.05,164.03 C27.57,164.97 26.15,174.09 21.53,193.00 C20.12,198.77 18.69,204.74 18.36,206.25 ZM 192.28 205.68 L 191.74 209.00 L 202.29 209.00 C212.68,209.00 212.91,208.95 217.17,205.71 C221.30,202.57 221.79,201.61 227.77,184.89 C233.92,167.70 234.02,167.28 232.54,163.76 L 231.04 160.17 L 220.56 160.33 C212.69,160.46 209.71,160.88 208.66,162.00 C206.97,163.79 193.05,200.92 192.28,205.68 ZM 154.71 207.70 C155.09,208.68 156.61,209.01 159.85,208.80 L 164.46 208.50 L 168.10 199.00 C170.95,191.57 172.21,189.43 173.85,189.18 C175.88,188.88 175.95,189.21 175.73,198.68 L 175.50 208.50 L 181.67 208.80 C186.99,209.05 187.92,208.83 188.44,207.20 C188.77,206.16 188.36,204.00 187.53,202.40 C186.65,200.72 186.01,196.88 186.01,193.27 C186.00,187.80 186.29,186.86 188.39,185.48 C190.01,184.42 191.84,181.00 194.04,174.89 L 197.29 165.87 L 195.28 163.18 C193.28,160.52 193.17,160.50 180.67,160.51 C166.93,160.52 164.23,161.39 167.33,164.81 C168.92,166.57 168.61,167.75 161.59,186.48 C157.51,197.38 154.42,206.92 154.71,207.70 ZM 113.00 208.39 C113.00,208.72 115.59,209.00 118.75,209.00 L 124.50 208.99 L 127.00 204.25 C129.14,200.19 129.99,199.45 132.89,199.18 L 136.28 198.85 L 135.60 203.93 L 134.93 209.00 L 146.64 209.00 L 150.35 186.75 C152.39,174.51 154.16,163.60 154.28,162.50 C154.49,160.63 153.82,160.48 144.23,160.21 C132.96,159.90 131.43,160.69 134.00,165.50 C134.23,165.94 134.46,166.25 134.59,166.59 C135.19,168.15 133.91,170.44 123.40,189.20 C122.54,190.73 121.62,192.38 120.63,194.14 C116.44,201.64 113.00,208.05 113.00,208.39 ZM 227.59 205.92 C230.04,208.83 230.57,209.00 237.35,209.00 C243.87,209.00 245.00,208.68 249.61,205.57 C254.36,202.38 254.92,201.55 257.94,193.17 C260.55,185.93 260.96,183.79 260.06,182.12 C258.41,179.04 255.42,177.83 250.18,178.12 C246.02,178.36 245.54,178.17 245.84,176.44 C246.03,175.37 246.26,173.49 246.34,172.25 C246.48,170.29 247.05,170.00 250.79,170.00 C254.33,170.00 255.04,170.31 254.79,171.75 C254.54,173.24 255.31,173.50 259.90,173.50 C265.29,173.50 265.30,173.49 266.66,169.57 C267.97,165.79 267.92,165.52 265.32,162.82 C262.84,160.23 262.03,160.00 255.27,160.00 C247.59,160.00 242.22,161.84 238.85,165.64 C237.95,166.66 235.97,171.00 234.46,175.28 L 231.72 183.07 L 234.03 185.53 C235.99,187.62 237.27,188.00 242.28,188.00 C247.54,188.00 248.13,188.20 247.50,189.75 C247.11,190.71 246.35,192.74 245.80,194.25 C244.99,196.50 244.20,197.00 241.50,197.00 C238.68,197.00 238.27,196.70 238.71,195.00 C239.19,193.18 238.74,193.00 233.63,193.00 C228.14,193.00 228.00,193.07 226.51,196.62 C224.48,201.49 224.58,202.34 227.59,205.92 ZM 81.55 206.75 L 80.87 209.00 L 109.74 209.00 L 112.37 201.59 C113.82,197.52 115.00,193.92 115.00,193.59 C115.00,192.39 112.74,193.06 110.27,195.00 C107.89,196.87 102.07,197.73 100.74,196.41 C100.41,196.08 105.45,189.67 111.94,182.16 C124.88,167.17 128.05,162.31 125.84,160.84 C125.10,160.34 118.88,160.09 112.00,160.27 L 99.50 160.61 L 97.29 166.77 C94.87,173.54 95.43,175.02 99.29,171.99 C100.94,170.69 103.34,170.00 106.20,170.00 L 110.59 170.00 L 104.54 176.25 C88.31,193.06 83.98,198.80 81.55,206.75 ZM 142.44 106.58 C144.97,108.43 148.01,108.38 150.78,106.44 C153.22,104.73 153.66,102.06 151.80,100.20 C149.76,98.16 155.40,98.74 158.12,100.86 C159.43,101.88 162.13,103.01 164.12,103.38 C167.21,103.95 167.97,103.70 169.28,101.70 C172.04,97.48 173.36,91.55 172.08,89.15 C170.54,86.28 168.22,86.43 166.82,89.50 C166.09,91.10 164.86,92.00 163.40,92.00 C162.14,92.00 160.81,92.50 160.44,93.10 C160.05,93.72 158.52,93.95 156.92,93.63 C154.57,93.16 154.18,93.36 154.64,94.78 C154.94,95.74 153.82,95.05 152.09,93.23 C149.85,90.87 149.00,89.01 149.00,86.48 C149.00,83.43 148.69,83.00 146.50,83.00 C144.38,83.00 144.00,83.46 144.00,86.03 C144.00,89.44 141.77,95.41 140.11,96.43 C139.42,96.86 139.25,96.51 139.65,95.47 C140.19,94.07 139.54,93.88 135.16,94.11 C132.35,94.26 129.74,94.07 129.36,93.69 C128.98,93.31 129.53,92.97 130.58,92.93 C131.64,92.90 130.06,92.21 127.07,91.41 C123.75,90.52 121.29,90.31 120.72,90.88 C119.18,92.42 120.93,97.58 124.31,101.47 L 127.50 105.13 L 131.08 103.62 C133.05,102.79 135.24,101.41 135.95,100.56 C136.66,99.70 138.50,99.00 140.04,99.00 C142.74,99.00 142.79,99.10 141.66,102.08 C140.65,104.77 140.75,105.34 142.44,106.58 ZM 66.53 208.04 C67.40,209.46 76.74,209.22 77.68,207.75 C79.22,205.36 94.73,161.50 94.31,160.75 C93.61,159.52 85.51,159.90 83.73,161.25 C81.80,162.71 65.65,206.63 66.53,208.04 ZM 130.50 148.13 C136.03,151.56 136.02,150.92 130.42,143.00 C122.84,132.28 121.79,127.48 124.35,115.25 C125.68,108.91 125.02,107.38 122.20,110.20 C121.27,111.13 121.00,110.19 120.98,105.95 C120.98,102.95 120.53,99.82 120.00,99.00 C119.47,98.18 118.96,97.95 118.88,98.50 C118.80,99.05 118.43,97.93 118.06,96.00 L 117.38 92.50 L 115.44 95.74 C114.37,97.53 113.05,98.99 112.50,99.00 C111.94,99.01 111.48,101.86 111.46,105.44 C111.41,112.28 111.98,112.62 115.18,107.64 L 117.19 104.50 L 116.58 107.97 C116.24,109.88 114.80,114.35 113.37,117.91 C111.52,122.54 110.93,125.48 111.31,128.26 C111.83,132.15 116.25,140.00 117.92,140.00 C118.41,140.00 118.61,138.09 118.36,135.75 L 117.91 131.50 L 120.57 136.50 C123.72,142.43 126.42,145.60 130.50,148.13 ZM 158.00 150.50 C158.00,152.15 163.91,148.82 167.14,145.34 C170.10,142.15 174.00,134.88 174.00,132.54 C174.00,131.69 174.51,131.00 175.13,131.00 C175.86,131.00 176.06,132.23 175.69,134.50 C174.97,138.97 175.87,138.92 179.00,134.31 C182.16,129.67 182.29,122.33 179.31,116.50 C177.38,112.71 175.40,105.00 176.36,105.00 C176.60,105.00 177.73,106.57 178.87,108.50 C181.61,113.14 183.13,113.06 181.83,108.34 C181.27,106.32 181.07,103.40 181.38,101.84 C181.69,100.28 181.52,99.00 181.00,99.00 C180.48,99.00 179.35,97.65 178.50,96.00 C176.42,91.98 175.00,92.21 175.00,96.56 C175.00,98.52 174.60,99.87 174.10,99.56 C172.85,98.79 172.00,101.46 172.00,106.15 C172.00,109.77 171.80,110.07 169.85,109.45 C167.86,108.82 167.76,109.02 168.40,112.14 C168.79,113.99 169.37,118.48 169.69,122.12 C170.19,127.88 169.93,129.48 167.62,134.52 C166.17,137.69 163.41,142.48 161.49,145.15 C159.57,147.82 158.00,150.23 158.00,150.50 ZM 214.00 145.67 C214.00,146.75 224.92,145.80 225.88,144.64 C228.53,141.45 231.00,131.51 231.00,124.03 C231.00,114.54 229.91,112.73 224.46,113.18 L 220.50 113.50 L 219.70 122.40 C219.26,127.30 217.80,134.47 216.45,138.33 C215.10,142.19 214.00,145.50 214.00,145.67 ZM 60.56 143.74 C61.80,145.63 62.94,146.00 67.52,146.00 C70.54,146.00 73.00,145.83 73.00,145.62 C73.00,145.41 71.88,142.26 70.51,138.61 C69.14,134.97 67.49,127.72 66.85,122.49 L 65.68 113.00 L 61.95 113.00 C57.64,113.00 57.45,113.32 56.50,122.16 C55.75,129.12 57.68,139.33 60.56,143.74 ZM 135.55 145.51 C137.55,148.53 139.55,151.00 139.99,151.00 C140.43,151.00 139.94,148.26 138.90,144.91 C136.84,138.31 136.40,132.00 138.00,132.00 C138.55,132.00 139.00,133.60 139.00,135.55 C139.00,139.37 140.91,143.85 143.43,145.95 C144.83,147.10 145.00,146.58 145.00,141.24 C145.00,137.94 145.71,133.56 146.57,131.49 C147.68,128.83 147.83,127.43 147.07,126.67 C146.48,126.08 146.00,124.42 146.00,122.97 C146.00,118.78 144.80,118.69 142.96,122.75 L 141.26 126.50 L 141.33 122.78 C141.42,117.48 140.23,116.99 136.90,120.96 C134.75,123.53 134.00,123.96 134.00,122.65 C134.00,121.67 134.48,119.96 135.08,118.86 C136.04,117.06 135.95,116.96 134.20,117.90 C131.86,119.14 129.00,125.84 129.00,130.05 C129.00,133.93 131.00,138.66 135.55,145.51 ZM 78.73 140.25 C81.21,145.85 81.38,146.00 85.22,146.00 C89.14,146.00 89.16,145.99 88.46,142.75 C88.07,140.96 86.42,136.57 84.78,133.00 C82.22,127.40 81.79,125.22 81.67,117.25 L 81.54 108.00 L 77.88 108.00 C75.81,108.00 74.00,108.56 73.72,109.29 C72.10,113.52 75.09,132.03 78.73,140.25 ZM 172.60 145.85 C168.35,150.36 167.92,151.14 170.00,150.51 C177.07,148.35 187.27,140.11 190.68,133.80 C193.39,128.78 193.14,116.79 190.21,111.25 C188.97,108.91 187.81,107.00 187.63,107.00 C187.44,107.00 187.25,109.89 187.19,113.42 C186.99,125.04 182.22,135.63 172.60,145.85 ZM 114.87 146.13 C118.41,148.81 121.63,151.00 122.03,151.00 C122.44,151.00 120.98,149.11 118.80,146.79 C110.07,137.52 106.45,127.30 107.26,114.24 C107.77,106.13 107.73,105.93 105.92,107.57 C102.62,110.56 100.00,117.32 100.00,122.87 C100.00,131.23 104.52,138.30 114.87,146.13 ZM 199.00 145.01 C199.00,145.55 200.27,146.00 201.82,146.00 C204.35,146.00 205.01,145.21 208.32,138.25 C210.74,133.16 212.00,129.07 212.00,126.32 C212.00,124.01 212.47,120.88 213.05,119.36 C213.63,117.84 213.82,114.88 213.47,112.79 C212.88,109.34 212.54,109.00 209.66,109.00 L 206.50 109.00 L 206.50 117.25 C206.50,124.47 206.03,126.65 202.75,134.76 C200.69,139.85 199.00,144.46 199.00,145.01 ZM 152.00 154.64 C152.00,156.25 159.24,145.50 161.85,140.00 C165.01,133.36 165.22,126.78 162.42,121.98 C159.90,117.66 158.10,117.04 158.76,120.71 L 159.26 123.50 L 156.31 120.74 C154.69,119.22 153.06,118.28 152.68,118.65 C151.31,120.03 152.05,125.25 153.97,127.69 C157.29,131.91 157.43,135.97 154.59,145.29 C153.17,149.97 152.00,154.17 152.00,154.64 ZM 213.55 195.00 C212.49,197.83 211.64,198.56 209.12,198.81 C207.40,198.99 206.00,198.72 206.00,198.23 C206.00,197.48 212.33,179.30 214.52,173.76 C215.02,172.50 214.56,171.75 212.85,171.07 C210.96,170.31 211.61,170.11 216.25,170.06 C219.62,170.03 222.00,170.43 222.00,171.04 C222.00,171.93 218.53,181.78 213.55,195.00 ZM 100.95 137.56 C102.90,138.84 104.62,139.91 104.76,139.94 C104.91,139.97 102.99,137.51 100.51,134.46 C96.40,129.42 96.00,128.44 96.00,123.53 C96.00,117.06 97.33,113.10 100.30,110.77 C102.47,109.07 102.43,109.04 97.70,109.02 C83.35,108.96 85.45,127.38 100.95,137.56 ZM 190.00 139.27 C190.00,141.48 199.08,131.48 201.53,126.57 C205.82,117.95 204.55,112.86 197.16,109.04 C194.05,107.44 193.65,108.08 194.92,112.66 C196.69,119.01 196.26,128.57 194.01,132.97 C192.92,135.11 191.57,137.15 191.01,137.49 C190.46,137.84 190.00,138.64 190.00,139.27 ZM 166.07 128.71 C166.13,131.42 166.17,131.44 167.21,129.27 C169.12,125.31 166.62,116.06 162.63,112.35 L 159.25 109.20 L 162.37 108.52 C165.43,107.86 165.38,107.81 160.18,106.42 C155.34,105.13 154.65,105.16 152.46,106.75 C151.14,107.71 150.07,108.72 150.09,109.00 C150.10,109.28 152.77,111.39 156.01,113.71 C162.22,118.13 165.95,123.70 166.07,128.71 ZM 125.07 125.99 L 125.14 130.50 L 126.92 125.29 C127.89,122.42 129.27,119.38 129.98,118.52 C130.96,117.35 137.48,112.32 141.82,109.41 C141.99,109.29 141.54,108.14 140.82,106.85 C140.09,105.56 139.44,104.36 139.37,104.20 C139.29,104.03 136.59,104.81 133.37,105.92 C128.71,107.52 128.11,107.94 130.45,107.97 L 133.39 108.00 L 130.18 111.31 C126.51,115.10 124.97,119.52 125.07,125.99 ZM 146.09 150.28 C145.02,156.84 146.69,155.99 150.70,147.93 C154.22,140.87 155.76,132.49 153.38,133.41 C152.40,133.78 152.00,133.09 152.00,131.03 C152.00,129.43 151.62,127.89 151.16,127.60 C149.58,126.62 147.00,134.08 146.94,139.78 C146.91,142.93 146.53,147.65 146.09,150.28 ZM 186.42 145.88 C187.17,147.09 192.65,146.96 194.72,145.67 C196.10,144.82 199.41,137.08 198.70,136.37 C198.37,136.03 195.80,137.58 193.00,139.81 C190.20,142.04 187.40,144.03 186.78,144.24 C186.14,144.45 185.99,145.17 186.42,145.88 ZM 140.38 184.75 C139.08,189.22 138.50,190.00 136.43,190.00 C135.09,190.00 134.02,189.44 134.05,188.75 C134.08,188.06 136.12,183.68 138.59,179.00 C143.02,170.61 143.07,170.56 142.49,175.00 C142.17,177.48 141.22,181.86 140.38,184.75 ZM 97.30 146.22 C98.67,147.10 104.94,146.90 105.53,145.95 C105.97,145.24 93.11,135.56 92.51,136.16 C91.89,136.78 95.98,145.36 97.30,146.22 ZM 183.55 175.53 C182.36,178.38 181.57,179.00 179.15,179.00 C176.35,179.00 176.21,178.80 176.35,175.01 L 176.50 171.01 L 180.75 171.01 C183.09,171.00 185.00,171.24 185.00,171.53 C185.00,171.82 184.35,173.62 183.55,175.53 ZM 125.97 86.37 C127.89,88.41 130.05,89.81 130.80,89.52 C131.55,89.24 133.81,88.99 135.83,88.97 C139.26,88.95 139.08,88.80 133.00,86.64 C129.43,85.37 125.60,83.96 124.50,83.51 C123.11,82.95 123.56,83.82 125.97,86.37 ZM 158.50 89.24 C160.70,89.48 162.75,89.74 163.06,89.83 C163.37,89.92 164.66,88.60 165.92,86.90 C165.97,86.83 166.02,86.76 166.07,86.69 C167.01,85.42 167.58,84.65 167.40,84.38 C167.13,83.98 165.12,84.75 160.04,86.70 L 159.50 86.91 L 154.50 88.83 ZM 234.00 144.43 C234.00,145.44 234.90,146.00 236.50,146.00 C238.47,146.00 239.00,145.49 239.00,143.62 C239.00,142.31 238.36,140.71 237.57,140.06 C236.43,139.11 235.92,139.27 235.07,140.87 C234.48,141.97 234.00,143.57 234.00,144.43 ZM 48.00 143.62 C48.00,145.52 48.53,146.00 50.61,146.00 C52.70,146.00 53.07,145.65 52.49,144.25 C52.10,143.29 51.54,141.70 51.26,140.73 C50.54,138.22 48.00,140.48 48.00,143.62 ZM 144.00 114.11 C144.00,115.37 148.75,115.22 149.54,113.93 C149.90,113.35 149.98,112.65 149.72,112.38 C148.96,111.62 144.00,113.12 144.00,114.11 ZM 197.50 75.00 C197.84,75.55 197.22,76.00 196.12,76.00 C195.02,76.00 193.84,75.55 193.50,75.00 C193.16,74.45 193.78,74.00 194.88,74.00 C195.98,74.00 197.16,74.45 197.50,75.00 ZM 203.00 81.62 C203.00,82.45 202.18,81.92 200.87,80.25 C199.63,78.66 199.66,78.63 201.25,79.87 C202.21,80.63 203.00,81.41 203.00,81.62 Z" fill="rgb(36,8,55)"/>
<path d="M 204.60 83.16 C204.26,82.62 203.21,82.30 202.25,82.46 C201.29,82.61 199.27,82.11 197.76,81.35 C196.25,80.58 194.73,80.01 194.37,80.07 C194.02,80.12 193.45,79.74 193.11,79.22 C192.08,77.61 167.17,71.23 155.20,69.50 C148.32,68.50 141.68,68.12 138.20,68.51 C135.07,68.86 123.78,70.26 113.11,71.61 C102.45,72.96 93.48,73.81 93.17,73.51 C92.63,72.96 95.54,70.60 99.50,68.37 C109.05,62.99 111.59,62.00 117.33,61.41 C123.06,60.82 124.06,61.01 127.87,63.42 C131.86,65.94 132.38,66.02 138.02,65.00 C151.27,62.59 152.76,59.86 141.50,58.60 C137.06,58.11 134.86,57.30 133.05,55.49 L 130.60 53.05 L 132.80 50.71 C134.01,49.42 135.00,47.70 135.00,46.87 C135.00,45.52 128.95,41.73 126.53,41.57 C125.18,41.47 123.03,36.97 123.01,34.20 C123.00,31.89 117.79,25.92 115.00,25.01 C112.79,24.29 102.24,24.49 96.50,25.36 L 91.50 26.12 L 98.21 19.81 C105.12,13.31 111.54,9.53 120.83,6.49 C128.13,4.10 134.48,4.98 142.85,9.57 C149.92,13.44 162.80,23.32 163.64,25.51 C163.92,26.24 166.53,27.80 169.45,28.98 L 173.46 30.61 L 170.62 29.59 C160.82,26.07 159.05,26.47 166.86,30.43 L 171.72 32.89 L 172.85 41.64 C173.85,49.37 174.35,50.77 177.18,53.69 C178.95,55.51 180.51,57.00 180.66,57.00 C181.13,57.00 179.72,53.60 178.38,51.50 C177.68,50.40 176.57,45.35 175.93,40.28 L 174.76 31.13 L 175.92 40.21 C176.72,46.45 177.85,50.60 179.54,53.48 C182.54,58.59 182.67,59.92 179.96,57.46 C178.28,55.94 178.02,55.90 178.53,57.23 C179.46,59.64 176.04,61.00 169.07,61.00 C161.44,61.00 161.16,62.51 168.63,63.39 C170.52,63.61 173.99,64.48 177.73,65.62 C174.54,64.66 171.90,64.05 170.81,64.08 C168.99,64.12 168.18,64.38 169.00,64.66 C169.82,64.93 171.18,65.42 172.00,65.74 C172.82,66.06 173.80,66.26 174.17,66.19 C174.54,66.11 177.75,67.37 181.30,68.98 C184.85,70.59 189.95,72.45 192.63,73.12 C193.68,73.37 194.61,73.67 195.46,74.04 C195.27,74.01 195.07,74.00 194.88,74.00 C193.78,74.00 193.16,74.45 193.50,75.00 C193.84,75.55 195.02,76.00 196.12,76.00 C197.09,76.00 197.69,75.65 197.58,75.19 C198.71,75.95 199.74,76.91 200.83,78.16 C203.92,81.73 206.40,83.57 204.32,80.75 C203.84,80.10 202.44,78.03 201.14,76.05 C203.68,79.19 206.24,83.09 205.70,83.63 C205.43,83.91 204.93,83.69 204.60,83.16 ZM 214.00 145.67 C214.00,145.50 215.10,142.19 216.45,138.33 C217.80,134.47 219.26,127.30 219.70,122.40 L 220.50 113.50 L 224.46 113.18 C229.91,112.73 231.00,114.54 231.00,124.03 C231.00,131.51 228.53,141.45 225.88,144.64 C224.92,145.80 214.00,146.75 214.00,145.67 ZM 60.56 143.74 C57.68,139.33 55.75,129.12 56.50,122.16 C57.45,113.32 57.64,113.00 61.95,113.00 L 65.68 113.00 L 66.85 122.49 C67.49,127.72 69.14,134.97 70.51,138.61 C71.88,142.26 73.00,145.41 73.00,145.62 C73.00,145.83 70.54,146.00 67.52,146.00 C62.94,146.00 61.80,145.63 60.56,143.74 ZM 78.73 140.25 C75.09,132.03 72.10,113.52 73.72,109.29 C74.00,108.56 75.81,108.00 77.88,108.00 L 81.54 108.00 L 81.67 117.25 C81.79,125.22 82.22,127.40 84.78,133.00 C86.42,136.57 88.07,140.96 88.46,142.75 C89.16,145.99 89.14,146.00 85.22,146.00 C81.38,146.00 81.21,145.85 78.73,140.25 ZM 199.00 145.01 C199.00,144.46 200.69,139.85 202.75,134.76 C206.03,126.65 206.50,124.47 206.50,117.25 L 206.50 109.00 L 209.66 109.00 C212.54,109.00 212.88,109.34 213.47,112.79 C213.82,114.88 213.63,117.84 213.05,119.36 C212.47,120.88 212.00,124.01 212.00,126.32 C212.00,129.07 210.74,133.16 208.32,138.25 C205.01,145.21 204.35,146.00 201.82,146.00 C200.27,146.00 199.00,145.55 199.00,145.01 ZM 100.95 137.56 C85.45,127.38 83.35,108.96 97.70,109.02 C102.43,109.04 102.47,109.07 100.30,110.77 C97.33,113.10 96.00,117.06 96.00,123.53 C96.00,128.44 96.40,129.42 100.51,134.46 C102.99,137.51 104.91,139.97 104.76,139.94 C104.62,139.91 102.90,138.84 100.95,137.56 ZM 190.00 139.27 C190.00,138.64 190.46,137.84 191.01,137.49 C191.57,137.15 192.92,135.11 194.01,132.97 C196.26,128.57 196.69,119.01 194.92,112.66 C193.65,108.08 194.05,107.44 197.16,109.04 C204.55,112.86 205.82,117.95 201.53,126.57 C199.08,131.48 190.00,141.48 190.00,139.27 ZM 186.42 145.88 C185.99,145.17 186.14,144.45 186.78,144.24 C187.40,144.03 190.20,142.04 193.00,139.81 C195.80,137.58 198.37,136.03 198.70,136.37 C199.41,137.08 196.10,144.82 194.72,145.67 C192.65,146.96 187.17,147.09 186.42,145.88 ZM 97.30 146.22 C95.98,145.36 91.89,136.78 92.51,136.16 C93.11,135.56 105.97,145.24 105.53,145.95 C104.94,146.90 98.67,147.10 97.30,146.22 ZM 234.00 144.43 C234.00,143.57 234.48,141.97 235.07,140.87 C235.92,139.27 236.43,139.11 237.57,140.06 C238.36,140.71 239.00,142.31 239.00,143.62 C239.00,145.49 238.47,146.00 236.50,146.00 C234.90,146.00 234.00,145.44 234.00,144.43 ZM 48.00 143.62 C48.00,140.48 50.54,138.22 51.26,140.73 C51.54,141.70 52.10,143.29 52.49,144.25 C53.07,145.65 52.70,146.00 50.61,146.00 C48.53,146.00 48.00,145.52 48.00,143.62 ZM 129.19 147.26 C125.82,144.86 123.37,141.77 120.57,136.50 L 117.91 131.50 L 118.36 135.75 C118.45,136.61 118.48,137.42 118.46,138.09 C117.12,134.59 116.82,130.23 117.89,129.57 C118.57,129.15 119.00,129.70 119.00,130.97 C119.00,135.29 124.13,143.19 129.19,147.26 ZM 117.93 95.34 L 118.06 96.00 C118.43,97.93 118.80,99.05 118.88,98.50 C118.96,97.95 119.47,98.18 120.00,99.00 C120.19,99.29 120.37,99.88 120.52,100.65 C120.37,100.03 120.19,99.62 120.00,99.50 C119.45,99.16 119.00,99.61 119.00,100.50 C119.00,101.39 118.59,101.87 118.10,101.56 C117.60,101.25 117.45,99.09 117.76,96.75 C117.83,96.21 117.89,95.75 117.93,95.34 ZM 115.20 112.88 C115.87,110.85 116.39,109.02 116.58,107.97 L 117.19 104.50 L 115.18 107.64 C113.90,109.63 113.04,110.78 112.47,110.99 L 113.70 109.56 C114.96,108.09 116.00,106.01 116.00,104.94 C116.00,103.87 116.48,103.00 117.07,103.00 C117.66,103.00 117.88,103.89 117.57,105.00 C117.26,106.10 116.73,108.01 116.41,109.25 C116.24,109.89 115.79,111.24 115.20,112.88 ZM 167.53 21.32 C166.55,20.40 165.48,19.37 164.33,18.23 C160.27,14.19 156.58,11.06 152.82,8.58 C157.59,11.55 161.89,15.24 166.38,20.09 C166.78,20.52 167.16,20.93 167.53,21.32 ZM 203.00 81.62 C203.00,81.41 202.21,80.63 201.25,79.87 C199.66,78.63 199.63,78.66 200.87,80.25 C202.18,81.92 203.00,82.45 203.00,81.62 ZM 118.07 139.94 C118.02,139.98 117.97,140.00 117.92,140.00 C117.19,140.00 115.92,138.49 114.69,136.46 C115.98,138.33 117.27,139.57 118.07,139.94 ZM 139.61 2.37 C138.74,2.10 137.84,1.84 136.93,1.59 C135.97,1.33 135.47,1.12 135.78,0.95 ZM 116.45 94.07 L 117.38 92.50 L 117.53 93.26 C117.33,93.35 117.05,93.55 116.70,93.84 C116.62,93.91 116.53,93.98 116.45,94.07 ZM 112.04 99.71 C112.18,99.26 112.33,99.00 112.50,99.00 C112.88,98.99 113.63,98.30 114.41,97.28 C114.04,98.24 113.29,99.00 112.68,99.01 C112.43,99.01 112.21,99.24 112.04,99.71 ZM 111.45 129.04 C111.39,128.77 111.34,128.51 111.31,128.26 C111.04,126.24 111.27,124.15 112.12,121.39 C111.31,124.25 111.08,126.70 111.45,129.04 ZM 176.63 27.21 C177.72,27.78 178.01,29.84 178.89,37.25 C178.02,29.89 177.69,27.79 176.63,27.21 ZM 134.60 149.98 C134.52,150.15 134.26,150.14 133.82,149.98 C134.25,150.13 134.51,150.14 134.60,149.98 Z" fill="rgb(87,48,123)"/>
<path d="M 18.36 206.25 C18.69,204.74 20.12,198.77 21.53,193.00 C26.15,174.09 27.57,164.97 26.05,164.03 C25.31,163.57 24.99,162.48 25.32,161.60 C26.11,159.55 39.02,159.22 38.97,161.25 C38.96,161.94 37.87,167.45 36.55,173.49 C35.23,179.54 34.30,184.63 34.48,184.81 C34.66,184.99 37.59,179.76 40.99,173.18 C46.48,162.56 47.51,161.15 50.21,160.61 C55.01,159.65 61.00,159.90 61.00,161.06 C61.00,161.64 59.87,167.11 58.49,173.22 C57.12,179.33 56.14,184.47 56.32,184.65 C56.50,184.83 59.42,179.36 62.81,172.49 L 68.96 160.00 L 73.98 160.00 C76.74,160.00 79.00,160.45 79.00,160.99 C79.00,161.54 73.72,172.57 67.26,185.49 L 55.52 209.00 L 48.24 209.00 C41.21,209.00 40.98,208.92 41.47,206.75 C44.22,194.52 47.00,181.61 46.98,181.12 C46.96,180.78 44.67,185.00 41.88,190.50 C39.08,196.00 35.70,202.41 34.36,204.75 L 31.92 209.00 L 17.75 209.00 ZM 192.28 205.68 C193.05,200.92 206.97,163.79 208.66,162.00 C209.71,160.88 212.69,160.46 220.56,160.33 L 231.04 160.17 L 232.54 163.76 C234.02,167.28 233.92,167.70 227.77,184.89 C221.79,201.61 221.30,202.57 217.17,205.71 C212.91,208.95 212.68,209.00 202.29,209.00 L 191.74 209.00 ZM 154.71 207.70 C154.42,206.92 157.51,197.38 161.59,186.48 C168.61,167.75 168.92,166.57 167.33,164.81 C164.23,161.39 166.93,160.52 180.67,160.51 C193.17,160.50 193.28,160.52 195.28,163.18 L 197.29 165.87 L 194.04 174.89 C191.84,181.00 190.01,184.42 188.39,185.48 C186.29,186.86 186.00,187.80 186.01,193.27 C186.01,196.88 186.65,200.72 187.53,202.40 C188.36,204.00 188.77,206.16 188.44,207.20 C187.92,208.83 186.99,209.05 181.67,208.80 L 175.50 208.50 L 175.73 198.68 C175.95,189.21 175.88,188.88 173.85,189.18 C172.21,189.43 170.95,191.57 168.10,199.00 L 164.46 208.50 L 159.85 208.80 C156.61,209.01 155.09,208.68 154.71,207.70 ZM 113.00 208.39 C113.00,208.05 116.44,201.64 120.63,194.14 C121.62,192.38 122.54,190.73 123.40,189.20 C133.91,170.44 135.19,168.15 134.59,166.59 C134.46,166.25 134.23,165.94 134.00,165.50 C131.43,160.69 132.96,159.90 144.23,160.21 C153.82,160.48 154.49,160.63 154.28,162.50 C154.16,163.60 152.39,174.51 150.35,186.75 L 146.64 209.00 L 134.93 209.00 L 135.60 203.93 L 136.28 198.85 L 132.89 199.18 C129.99,199.45 129.14,200.19 127.00,204.25 L 124.50 208.99 L 118.75 209.00 C115.59,209.00 113.00,208.72 113.00,208.39 ZM 227.59 205.92 C224.58,202.34 224.48,201.49 226.51,196.62 C228.00,193.07 228.14,193.00 233.63,193.00 C238.74,193.00 239.19,193.18 238.71,195.00 C238.27,196.70 238.68,197.00 241.50,197.00 C244.20,197.00 244.99,196.50 245.80,194.25 C246.35,192.74 247.11,190.71 247.50,189.75 C248.13,188.20 247.54,188.00 242.28,188.00 C237.27,188.00 235.99,187.62 234.03,185.53 L 231.72 183.07 L 234.46 175.28 C235.97,171.00 237.95,166.66 238.85,165.64 C242.22,161.84 247.59,160.00 255.27,160.00 C262.03,160.00 262.84,160.23 265.32,162.82 C267.92,165.52 267.97,165.79 266.66,169.57 C265.30,173.49 265.29,173.50 259.90,173.50 C255.31,173.50 254.54,173.24 254.79,171.75 C255.04,170.31 254.33,170.00 250.79,170.00 C247.05,170.00 246.48,170.29 246.34,172.25 C246.26,173.49 246.03,175.37 245.84,176.44 C245.54,178.17 246.02,178.36 250.18,178.12 C255.42,177.83 258.41,179.04 260.06,182.12 C260.96,183.79 260.55,185.93 257.94,193.17 C254.92,201.55 254.36,202.38 249.61,205.57 C245.00,208.68 243.87,209.00 237.35,209.00 C230.57,209.00 230.04,208.83 227.59,205.92 ZM 81.55 206.75 C83.98,198.80 88.31,193.06 104.54,176.25 L 110.59 170.00 L 106.20 170.00 C103.34,170.00 100.94,170.69 99.29,171.99 C95.43,175.02 94.87,173.54 97.29,166.77 L 99.50 160.61 L 112.00 160.27 C118.88,160.09 125.10,160.34 125.84,160.84 C128.05,162.31 124.88,167.17 111.94,182.16 C105.45,189.67 100.41,196.08 100.74,196.41 C102.07,197.73 107.89,196.87 110.27,195.00 C112.74,193.06 115.00,192.39 115.00,193.59 C115.00,193.92 113.82,197.52 112.37,201.59 L 109.74 209.00 L 80.87 209.00 ZM 142.44 106.58 C140.75,105.34 140.65,104.77 141.66,102.08 C142.79,99.10 142.74,99.00 140.04,99.00 C138.50,99.00 136.66,99.70 135.95,100.56 C135.24,101.41 133.05,102.79 131.08,103.62 L 127.50 105.13 L 124.31 101.47 C120.93,97.58 119.18,92.42 120.72,90.88 C121.29,90.31 123.75,90.52 127.07,91.41 C130.06,92.21 131.64,92.90 130.58,92.93 C129.53,92.97 128.98,93.31 129.36,93.69 C129.74,94.07 132.35,94.26 135.16,94.11 C139.54,93.88 140.19,94.07 139.65,95.47 C139.25,96.51 139.42,96.86 140.11,96.43 C141.77,95.41 144.00,89.44 144.00,86.03 C144.00,83.46 144.38,83.00 146.50,83.00 C148.69,83.00 149.00,83.43 149.00,86.48 C149.00,89.01 149.85,90.87 152.09,93.23 C153.82,95.05 154.94,95.74 154.64,94.78 C154.18,93.36 154.57,93.16 156.92,93.63 C158.52,93.95 160.05,93.72 160.44,93.10 C160.81,92.50 162.14,92.00 163.40,92.00 C164.86,92.00 166.09,91.10 166.82,89.50 C168.22,86.43 170.54,86.28 172.08,89.15 C173.36,91.55 172.04,97.48 169.28,101.70 C167.97,103.70 167.21,103.95 164.12,103.38 C162.13,103.01 159.43,101.88 158.12,100.86 C155.40,98.74 149.76,98.16 151.80,100.20 C153.66,102.06 153.22,104.73 150.78,106.44 C148.01,108.38 144.97,108.43 142.44,106.58 ZM 66.53 208.04 C65.65,206.63 81.80,162.71 83.73,161.25 C85.51,159.90 93.61,159.52 94.31,160.75 C94.73,161.50 79.22,205.36 77.68,207.75 C76.74,209.22 67.40,209.46 66.53,208.04 ZM 213.55 195.00 C218.53,181.78 222.00,171.93 222.00,171.04 C222.00,170.43 219.62,170.03 216.25,170.06 C211.61,170.11 210.96,170.31 212.85,171.07 C214.56,171.75 215.02,172.50 214.52,173.76 C212.33,179.30 206.00,197.48 206.00,198.23 C206.00,198.72 207.40,198.99 209.12,198.81 C211.64,198.56 212.49,197.83 213.55,195.00 ZM 140.38 184.75 C141.22,181.86 142.17,177.48 142.49,175.00 C143.07,170.56 143.02,170.61 138.59,179.00 C136.12,183.68 134.08,188.06 134.05,188.75 C134.02,189.44 135.09,190.00 136.43,190.00 C138.50,190.00 139.08,189.22 140.38,184.75 ZM 183.55 175.53 C184.35,173.62 185.00,171.82 185.00,171.53 C185.00,171.24 183.09,171.00 180.75,171.01 L 176.50 171.01 L 176.35 175.01 C176.21,178.80 176.35,179.00 179.15,179.00 C181.57,179.00 182.36,178.38 183.55,175.53 ZM 144.00 114.11 C144.00,113.12 148.96,111.62 149.72,112.38 C149.98,112.65 149.90,113.35 149.54,113.93 C148.75,115.22 144.00,115.37 144.00,114.11 Z" fill="rgb(232,180,63)"/>
<path d="M 255.81 217.94 C260.33,215.15 264.77,211.76 265.66,210.39 C266.56,209.02 270.53,199.04 274.49,188.20 C278.45,177.37 281.95,167.82 282.26,167.00 C282.58,166.18 282.88,178.44 282.92,194.25 L 283.00 223.00 L 265.29 223.00 L 247.58 223.00 L 255.81 217.94 ZM 0.08 110.75 L 0.00 0.00 L 62.25 0.07 C122.93,0.14 124.35,0.19 118.50,1.87 C108.46,4.76 100.14,9.86 91.39,18.50 C83.87,25.92 75.10,37.43 76.16,38.49 C76.41,38.74 80.19,37.40 84.56,35.51 C106.12,26.20 117.54,27.39 118.39,39.05 C118.65,42.64 119.22,43.79 121.35,45.00 C122.81,45.83 124.00,46.72 124.00,47.00 C124.00,48.56 113.76,55.91 109.61,57.32 C106.92,58.23 101.30,61.00 97.11,63.48 C88.09,68.81 70.77,81.19 70.29,82.64 C70.09,83.23 71.13,83.50 72.72,83.28 C74.94,82.98 77.32,84.32 84.50,89.93 C89.45,93.79 96.43,98.76 100.00,100.97 L 106.50 104.99 L 99.50 104.99 C95.65,104.99 87.12,104.31 80.54,103.49 C64.22,101.46 65.00,101.36 65.00,105.50 L 65.00 109.00 L 56.50 109.00 L 48.00 109.00 L 48.00 117.03 C48.00,124.98 47.95,125.14 42.54,134.11 C39.54,139.09 36.81,144.01 36.49,145.05 C35.96,146.70 34.66,146.97 25.77,147.22 L 15.66 147.50 L 13.18 154.96 C11.09,161.21 10.86,163.03 11.72,166.26 C12.61,169.59 12.02,173.27 7.41,193.21 C4.47,205.91 1.64,217.47 1.11,218.90 C0.50,220.58 0.13,182.32 0.08,110.75 ZM 279.66 158.50 C278.09,156.02 274.99,152.44 272.77,150.54 C268.92,147.24 268.31,147.06 260.12,146.79 L 251.52 146.50 L 248.01 139.42 C246.08,135.53 243.26,130.72 241.75,128.74 C239.24,125.45 239.00,124.38 239.00,116.46 L 239.00 107.79 L 230.75 108.15 L 222.50 108.50 L 222.65 105.25 C222.82,101.36 223.55,101.43 203.52,103.46 C195.83,104.24 189.41,104.74 189.24,104.57 C189.07,104.40 191.99,102.45 195.72,100.23 C199.45,98.01 203.53,94.80 204.78,93.10 C206.03,91.39 207.61,89.99 208.28,89.98 C211.92,89.94 212.19,88.31 209.46,82.89 C207.57,79.14 202.84,73.68 193.95,64.97 C186.52,57.70 180.93,51.40 180.63,49.97 C180.34,48.61 179.56,42.89 178.89,37.25 C177.72,27.37 177.59,27.00 175.23,27.00 C173.48,27.00 170.94,25.02 166.38,20.09 C158.56,11.65 151.32,6.72 141.19,2.96 L 133.50 0.10 L 208.25 0.05 L 283.00 0.00 L 283.00 81.50 C283.00,126.32 282.89,163.00 282.75,163.00 C282.61,163.00 281.22,160.97 279.66,158.50 ZM 146.09 150.28 C146.53,147.65 146.91,142.93 146.94,139.78 C147.00,134.08 149.58,126.62 151.16,127.60 C151.62,127.89 152.00,129.43 152.00,131.03 C152.00,133.09 152.40,133.78 153.38,133.41 C155.76,132.49 154.22,140.87 150.70,147.93 C146.69,155.99 145.02,156.84 146.09,150.28 ZM 152.00 154.64 C152.00,154.17 153.17,149.97 154.59,145.29 C157.43,135.97 157.29,131.91 153.97,127.69 C152.05,125.25 151.31,120.03 152.68,118.65 C153.06,118.28 154.69,119.22 156.31,120.74 L 159.26 123.50 L 158.76 120.71 C158.10,117.04 159.90,117.66 162.42,121.98 C165.22,126.78 165.01,133.36 161.85,140.00 C159.24,145.50 152.00,156.25 152.00,154.64 ZM 114.87 146.13 C104.52,138.30 100.00,131.23 100.00,122.87 C100.00,117.32 102.62,110.56 105.92,107.57 C107.73,105.93 107.77,106.13 107.26,114.24 C106.45,127.30 110.07,137.52 118.80,146.79 C120.98,149.11 122.44,151.00 122.03,151.00 C121.63,151.00 118.41,148.81 114.87,146.13 ZM 135.55 145.51 C131.00,138.66 129.00,133.93 129.00,130.05 C129.00,125.84 131.86,119.14 134.20,117.90 C135.95,116.96 136.04,117.06 135.08,118.86 C134.48,119.96 134.00,121.67 134.00,122.65 C134.00,123.96 134.75,123.53 136.90,120.96 C140.23,116.99 141.42,117.48 141.33,122.78 L 141.26 126.50 L 142.96 122.75 C144.80,118.69 146.00,118.78 146.00,122.97 C146.00,124.42 146.48,126.08 147.07,126.67 C147.83,127.43 147.68,128.83 146.57,131.49 C145.71,133.56 145.00,137.94 145.00,141.24 C145.00,146.58 144.83,147.10 143.43,145.95 C140.91,143.85 139.00,139.37 139.00,135.55 C139.00,133.60 138.55,132.00 138.00,132.00 C136.40,132.00 136.84,138.31 138.90,144.91 C139.94,148.26 140.43,151.00 139.99,151.00 C139.55,151.00 137.55,148.53 135.55,145.51 ZM 158.00 150.50 C158.00,150.23 159.57,147.82 161.49,145.15 C163.41,142.48 166.17,137.69 167.62,134.52 C169.93,129.48 170.19,127.88 169.69,122.12 C169.37,118.48 168.79,113.99 168.40,112.14 C167.76,109.02 167.86,108.82 169.85,109.45 C171.82,110.08 172.00,109.78 172.02,105.82 C172.02,103.44 172.47,100.82 173.00,100.00 C173.83,98.72 173.97,98.75 173.98,100.25 C173.99,101.21 174.39,102.00 174.88,102.00 C175.36,102.00 175.53,99.97 175.25,97.50 C174.65,92.20 176.17,91.50 178.50,96.00 C179.35,97.65 180.48,99.00 181.00,99.00 C181.52,99.00 181.69,100.28 181.38,101.84 C181.07,103.40 181.27,106.32 181.83,108.34 C183.13,113.06 181.61,113.14 178.87,108.50 C177.73,106.57 176.60,105.00 176.36,105.00 C175.40,105.00 177.38,112.71 179.31,116.50 C182.29,122.33 182.16,129.67 179.00,134.31 C175.87,138.92 174.97,138.97 175.69,134.50 C176.06,132.23 175.86,131.00 175.13,131.00 C174.51,131.00 174.00,131.69 174.00,132.54 C174.00,134.88 170.10,142.15 167.14,145.34 C163.91,148.82 158.00,152.15 158.00,150.50 ZM 172.60 145.85 C182.22,135.63 186.99,125.04 187.19,113.42 C187.25,109.89 187.44,107.00 187.63,107.00 C187.81,107.00 188.97,108.91 190.21,111.25 C193.14,116.79 193.39,128.78 190.68,133.80 C187.27,140.11 177.07,148.35 170.00,150.51 C167.92,151.14 168.35,150.36 172.60,145.85 ZM 131.50 148.84 C125.82,145.70 119.00,135.95 119.00,130.97 C119.00,129.70 118.57,129.15 117.89,129.57 C116.80,130.24 117.13,134.72 118.52,138.25 C119.81,141.51 117.06,140.05 114.43,136.07 C110.60,130.28 110.31,125.61 113.30,117.94 C114.69,114.40 116.08,110.49 116.41,109.25 C116.73,108.01 117.26,106.10 117.57,105.00 C117.88,103.89 117.66,103.00 117.07,103.00 C116.48,103.00 116.00,103.87 116.00,104.94 C116.00,106.01 114.96,108.09 113.70,109.56 L 111.40 112.24 L 111.45 105.62 C111.48,101.23 111.90,99.01 112.68,99.01 C113.33,99.00 114.14,98.14 114.47,97.09 C114.80,96.04 115.81,94.58 116.70,93.84 C118.17,92.63 118.27,92.91 117.76,96.75 C117.45,99.09 117.60,101.25 118.10,101.56 C118.59,101.87 119.00,101.39 119.00,100.50 C119.00,99.61 119.45,99.16 120.00,99.50 C120.55,99.84 121.00,102.66 121.00,105.76 C121.00,110.15 121.27,111.13 122.20,110.20 C125.02,107.38 125.68,108.91 124.35,115.25 C121.79,127.48 122.84,132.28 130.42,143.00 C135.79,150.59 135.91,151.27 131.50,148.84 ZM 166.07 128.71 C165.95,123.70 162.22,118.13 156.01,113.71 C152.77,111.39 150.10,109.28 150.09,109.00 C150.07,108.72 151.14,107.71 152.46,106.75 C154.65,105.16 155.34,105.13 160.18,106.42 C165.38,107.81 165.43,107.86 162.37,108.52 L 159.25 109.20 L 162.63 112.35 C166.62,116.06 169.12,125.31 167.21,129.27 C166.17,131.44 166.13,131.42 166.07,128.71 ZM 125.07 125.99 C124.97,119.52 126.51,115.10 130.18,111.31 L 133.39 108.00 L 130.45 107.97 C128.11,107.94 128.71,107.52 133.37,105.92 C136.59,104.81 139.29,104.03 139.37,104.20 C139.44,104.36 140.09,105.56 140.82,106.85 C141.54,108.14 141.99,109.29 141.82,109.41 C137.48,112.32 130.96,117.35 129.98,118.52 C129.27,119.38 127.89,122.42 126.92,125.29 L 125.14 130.50 L 125.07 125.99 ZM 125.97 86.37 C123.56,83.82 123.11,82.95 124.50,83.51 C125.60,83.96 129.43,85.37 133.00,86.64 C139.08,88.80 139.26,88.95 135.83,88.97 C133.81,88.99 131.55,89.24 130.80,89.52 C130.05,89.81 127.89,88.41 125.97,86.37 ZM 158.50 89.24 L 154.50 88.83 L 159.50 86.91 C168.63,83.40 168.50,83.40 165.92,86.90 C164.66,88.60 163.37,89.92 163.06,89.83 C162.75,89.74 160.70,89.48 158.50,89.24 ZM 200.83 78.16 C198.39,75.35 196.20,74.00 192.63,73.12 C189.95,72.45 184.85,70.59 181.30,68.98 C177.75,67.37 174.54,66.11 174.17,66.19 C173.80,66.26 172.82,66.06 172.00,65.74 C171.18,65.42 169.82,64.93 169.00,64.66 C168.18,64.38 168.99,64.12 170.81,64.08 C172.64,64.04 178.91,65.80 184.74,68.00 C190.58,70.20 196.07,72.00 196.93,72.01 C197.79,72.01 199.60,73.70 200.95,75.76 C202.30,77.82 203.82,80.06 204.32,80.75 C206.40,83.57 203.92,81.73 200.83,78.16 ZM 177.18 53.69 C174.35,50.77 173.85,49.37 172.85,41.64 L 171.72 32.89 L 166.86 30.43 C159.05,26.47 160.82,26.07 170.62,29.59 L 174.75 31.07 L 175.93 40.28 C176.57,45.35 177.68,50.40 178.38,51.50 C179.72,53.60 181.13,57.00 180.66,57.00 C180.51,57.00 178.95,55.51 177.18,53.69 Z" fill="rgb(251,250,251)"/>
</g>
</svg>